@startuml

实体 <|-- 空间
实体 <|-- 设备

空间 "1" *-- "0..1" 空间 : > 包含
空间 "1" o-- "0..n" 设备 : < 部署于


设备 <|-- 受管设备

受管设备 <|-- 计量表
受管设备 <|-- 网关


受管设备 <|-- 能耗设备
能耗设备 <|-- 组合设备


组合设备 "0..1" o-- "1..n" 能耗设备 : > 包含

class 属性{
    String name
    Object value
}

class 度量{
    String name
    URI measurements
}

class 耗{
    String name
    TSS timespan
    Formula formula
}


class 度量值{
    String name
    TS timestamp
    KV[] measurements
}

实体 "1" *-- "*" 属性 : > 包含

计量表 "1" *-- 计量点位 : > 包含

度量 "1" -- "1" 计量点位 : < 对应

受管设备 "1" *-- "*" 度量 : > collects

能耗设备 "1" *-- "*" 耗 : > is billed by

度量 "1" -- "*" 度量值 : > refers to

耗 "1" -- "*" 度量 : > caculates on

网关 "1" -- "*" 计量点位

网关 -- 度量值

@enduml